<mxfile host="app.diagrams.net" modified="2024-02-22T11:03:53.593Z" agent="Mozilla/5.0 (Windows NT 10.0; Win64; x64) AppleWebKit/537.36 (KHTML, like Gecko) Chrome/121.0.0.0 Safari/537.36 Edg/121.0.0.0" etag="ERUuRIUz9YoFReQTJ9vD" version="23.1.5" type="github">
  <diagram name="Page-1" id="2YBvvXClWsGukQMizWep">
    <mxGraphModel dx="5544" dy="3140" grid="0" gridSize="10" guides="1" tooltips="1" connect="1" arrows="1" fold="1" page="1" pageScale="1" pageWidth="1169" pageHeight="1654" math="0" shadow="0">
      <root>
        <mxCell id="0" />
        <mxCell id="1" parent="0" />
        <mxCell id="aM9ryv3xv72pqoxQDRHE-1" value="Jenkins" style="shape=umlLifeline;perimeter=lifelinePerimeter;whiteSpace=wrap;html=1;container=0;dropTarget=0;collapsible=0;recursiveResize=0;outlineConnect=0;portConstraint=eastwest;newEdgeStyle={&quot;edgeStyle&quot;:&quot;elbowEdgeStyle&quot;,&quot;elbow&quot;:&quot;vertical&quot;,&quot;curved&quot;:0,&quot;rounded&quot;:0};strokeWidth=1;fontSize=13;size=54;fontFamily=Verdana;glass=1;rounded=1;shadow=1;fillColor=#dae8fc;strokeColor=#6c8ebf;fontStyle=1;" parent="1" vertex="1">
          <mxGeometry x="204" y="114" width="100" height="1281" as="geometry" />
        </mxCell>
        <mxCell id="aM9ryv3xv72pqoxQDRHE-2" value="" style="html=1;points=[];perimeter=orthogonalPerimeter;outlineConnect=0;targetShapes=umlLifeline;portConstraint=eastwest;newEdgeStyle={&quot;edgeStyle&quot;:&quot;elbowEdgeStyle&quot;,&quot;elbow&quot;:&quot;vertical&quot;,&quot;curved&quot;:0,&quot;rounded&quot;:0};strokeWidth=1;fontSize=13;fontFamily=Verdana;fillColor=#dae8fc;strokeColor=#6c8ebf;rounded=1;glass=0;shadow=1;fontStyle=1;" parent="aM9ryv3xv72pqoxQDRHE-1" vertex="1">
          <mxGeometry x="45" y="121" width="10" height="134" as="geometry" />
        </mxCell>
        <mxCell id="k59G2FWmyJD4u-l8T83N-55" value="" style="html=1;points=[];perimeter=orthogonalPerimeter;outlineConnect=0;targetShapes=umlLifeline;portConstraint=eastwest;newEdgeStyle={&quot;edgeStyle&quot;:&quot;elbowEdgeStyle&quot;,&quot;elbow&quot;:&quot;vertical&quot;,&quot;curved&quot;:0,&quot;rounded&quot;:0};strokeWidth=1;fontSize=13;fontFamily=Verdana;fillColor=#dae8fc;strokeColor=#6c8ebf;rounded=1;glass=0;shadow=1;fontStyle=1;" vertex="1" parent="aM9ryv3xv72pqoxQDRHE-1">
          <mxGeometry x="45" y="454" width="10" height="51" as="geometry" />
        </mxCell>
        <mxCell id="k59G2FWmyJD4u-l8T83N-59" value="" style="html=1;points=[];perimeter=orthogonalPerimeter;outlineConnect=0;targetShapes=umlLifeline;portConstraint=eastwest;newEdgeStyle={&quot;edgeStyle&quot;:&quot;elbowEdgeStyle&quot;,&quot;elbow&quot;:&quot;vertical&quot;,&quot;curved&quot;:0,&quot;rounded&quot;:0};strokeWidth=1;fontSize=13;fontFamily=Verdana;fillColor=#dae8fc;strokeColor=#6c8ebf;rounded=1;glass=0;shadow=1;fontStyle=1;" vertex="1" parent="aM9ryv3xv72pqoxQDRHE-1">
          <mxGeometry x="45" y="558" width="10" height="51" as="geometry" />
        </mxCell>
        <mxCell id="aM9ryv3xv72pqoxQDRHE-5" value="Nexus" style="shape=umlLifeline;perimeter=lifelinePerimeter;whiteSpace=wrap;html=1;container=0;dropTarget=0;collapsible=0;recursiveResize=0;outlineConnect=0;portConstraint=eastwest;newEdgeStyle={&quot;edgeStyle&quot;:&quot;elbowEdgeStyle&quot;,&quot;elbow&quot;:&quot;vertical&quot;,&quot;curved&quot;:0,&quot;rounded&quot;:0};strokeWidth=1;fontSize=13;size=53;fontFamily=Verdana;rounded=1;shadow=1;glass=1;fillColor=#d5e8d4;strokeColor=#82b366;fontStyle=1;" parent="1" vertex="1">
          <mxGeometry x="402" y="114" width="100" height="1282" as="geometry" />
        </mxCell>
        <mxCell id="aM9ryv3xv72pqoxQDRHE-6" value="" style="html=1;points=[];perimeter=orthogonalPerimeter;outlineConnect=0;targetShapes=umlLifeline;portConstraint=eastwest;newEdgeStyle={&quot;edgeStyle&quot;:&quot;elbowEdgeStyle&quot;,&quot;elbow&quot;:&quot;vertical&quot;,&quot;curved&quot;:0,&quot;rounded&quot;:0};strokeWidth=1;fontSize=13;fontFamily=Verdana;rounded=1;glass=0;shadow=1;fillColor=#d5e8d4;strokeColor=#82b366;fontStyle=1;" parent="aM9ryv3xv72pqoxQDRHE-5" vertex="1">
          <mxGeometry x="45" y="317" width="10" height="88" as="geometry" />
        </mxCell>
        <mxCell id="k59G2FWmyJD4u-l8T83N-1" value="GoCD" style="shape=umlLifeline;perimeter=lifelinePerimeter;whiteSpace=wrap;html=1;container=0;dropTarget=0;collapsible=0;recursiveResize=0;outlineConnect=0;portConstraint=eastwest;newEdgeStyle={&quot;edgeStyle&quot;:&quot;elbowEdgeStyle&quot;,&quot;elbow&quot;:&quot;vertical&quot;,&quot;curved&quot;:0,&quot;rounded&quot;:0};strokeWidth=1;fontSize=13;size=52;fontFamily=Verdana;shadow=1;rounded=1;fillColor=#d5e8d4;strokeColor=#82b366;glass=1;fontStyle=1;" vertex="1" parent="1">
          <mxGeometry x="534" y="114" width="100" height="1283" as="geometry" />
        </mxCell>
        <mxCell id="k59G2FWmyJD4u-l8T83N-2" value="" style="html=1;points=[];perimeter=orthogonalPerimeter;outlineConnect=0;targetShapes=umlLifeline;portConstraint=eastwest;newEdgeStyle={&quot;edgeStyle&quot;:&quot;elbowEdgeStyle&quot;,&quot;elbow&quot;:&quot;vertical&quot;,&quot;curved&quot;:0,&quot;rounded&quot;:0};strokeWidth=1;fontSize=13;fontFamily=Verdana;rounded=1;shadow=1;fillColor=#d5e8d4;strokeColor=#82b366;fontStyle=1;" vertex="1" parent="k59G2FWmyJD4u-l8T83N-1">
          <mxGeometry x="45" y="255" width="10" height="96" as="geometry" />
        </mxCell>
        <mxCell id="k59G2FWmyJD4u-l8T83N-7" value="Harbor - HUB" style="shape=umlLifeline;perimeter=lifelinePerimeter;whiteSpace=wrap;html=1;container=0;dropTarget=0;collapsible=0;recursiveResize=0;outlineConnect=0;portConstraint=eastwest;newEdgeStyle={&quot;edgeStyle&quot;:&quot;elbowEdgeStyle&quot;,&quot;elbow&quot;:&quot;vertical&quot;,&quot;curved&quot;:0,&quot;rounded&quot;:0};strokeWidth=1;fontSize=13;size=61;fontFamily=Verdana;rounded=1;shadow=1;glass=1;fillColor=#d5e8d4;strokeColor=#82b366;fontStyle=1;" vertex="1" parent="1">
          <mxGeometry x="662" y="114" width="100" height="1280" as="geometry" />
        </mxCell>
        <mxCell id="k59G2FWmyJD4u-l8T83N-8" value="" style="html=1;points=[];perimeter=orthogonalPerimeter;outlineConnect=0;targetShapes=umlLifeline;portConstraint=eastwest;newEdgeStyle={&quot;edgeStyle&quot;:&quot;elbowEdgeStyle&quot;,&quot;elbow&quot;:&quot;vertical&quot;,&quot;curved&quot;:0,&quot;rounded&quot;:0};strokeWidth=1;fontSize=13;fontFamily=Verdana;rounded=1;shadow=1;fillColor=#d5e8d4;strokeColor=#82b366;fontStyle=1;" vertex="1" parent="k59G2FWmyJD4u-l8T83N-7">
          <mxGeometry x="45" y="359" width="10" height="49" as="geometry" />
        </mxCell>
        <mxCell id="k59G2FWmyJD4u-l8T83N-9" value="Harbor - eu-central-1" style="shape=umlLifeline;perimeter=lifelinePerimeter;whiteSpace=wrap;html=1;container=0;dropTarget=0;collapsible=0;recursiveResize=0;outlineConnect=0;portConstraint=eastwest;newEdgeStyle={&quot;edgeStyle&quot;:&quot;elbowEdgeStyle&quot;,&quot;elbow&quot;:&quot;vertical&quot;,&quot;curved&quot;:0,&quot;rounded&quot;:0};strokeWidth=1;fontSize=13;size=61;fontFamily=Verdana;rounded=1;fillColor=#d5e8d4;strokeColor=#82b366;glass=1;shadow=1;fontStyle=1;" vertex="1" parent="1">
          <mxGeometry x="787" y="114" width="100" height="1279" as="geometry" />
        </mxCell>
        <mxCell id="k59G2FWmyJD4u-l8T83N-10" value="" style="html=1;points=[];perimeter=orthogonalPerimeter;outlineConnect=0;targetShapes=umlLifeline;portConstraint=eastwest;newEdgeStyle={&quot;edgeStyle&quot;:&quot;elbowEdgeStyle&quot;,&quot;elbow&quot;:&quot;vertical&quot;,&quot;curved&quot;:0,&quot;rounded&quot;:0};strokeWidth=1;fontSize=13;fontFamily=Verdana;rounded=1;shadow=1;fillColor=#d5e8d4;strokeColor=#82b366;fontStyle=1;" vertex="1" parent="k59G2FWmyJD4u-l8T83N-9">
          <mxGeometry x="45" y="361" width="10" height="44" as="geometry" />
        </mxCell>
        <mxCell id="k59G2FWmyJD4u-l8T83N-12" value="vf-cdaas/TIMO-IMAGES repo" style="shape=umlLifeline;perimeter=lifelinePerimeter;whiteSpace=wrap;html=1;container=0;dropTarget=0;collapsible=0;recursiveResize=0;outlineConnect=0;portConstraint=eastwest;newEdgeStyle={&quot;edgeStyle&quot;:&quot;elbowEdgeStyle&quot;,&quot;elbow&quot;:&quot;vertical&quot;,&quot;curved&quot;:0,&quot;rounded&quot;:0};strokeWidth=1;fontSize=13;size=62;fontFamily=Verdana;fillColor=#e1d5e7;strokeColor=#9673a6;glass=1;rounded=1;shadow=1;fontStyle=1;" vertex="1" parent="1">
          <mxGeometry x="928" y="114" width="100" height="1279" as="geometry" />
        </mxCell>
        <mxCell id="k59G2FWmyJD4u-l8T83N-13" value="" style="html=1;points=[];perimeter=orthogonalPerimeter;outlineConnect=0;targetShapes=umlLifeline;portConstraint=eastwest;newEdgeStyle={&quot;edgeStyle&quot;:&quot;elbowEdgeStyle&quot;,&quot;elbow&quot;:&quot;vertical&quot;,&quot;curved&quot;:0,&quot;rounded&quot;:0};strokeWidth=1;fontSize=13;fontFamily=Verdana;rounded=1;shadow=1;fillColor=#e1d5e7;strokeColor=#9673a6;fontStyle=1;" vertex="1" parent="k59G2FWmyJD4u-l8T83N-12">
          <mxGeometry x="45" y="162" width="10" height="127" as="geometry" />
        </mxCell>
        <mxCell id="k59G2FWmyJD4u-l8T83N-14" value="VF-GitHub CallyaClassic" style="shape=umlLifeline;perimeter=lifelinePerimeter;whiteSpace=wrap;html=1;container=0;dropTarget=0;collapsible=0;recursiveResize=0;outlineConnect=0;portConstraint=eastwest;newEdgeStyle={&quot;edgeStyle&quot;:&quot;elbowEdgeStyle&quot;,&quot;elbow&quot;:&quot;vertical&quot;,&quot;curved&quot;:0,&quot;rounded&quot;:0};strokeWidth=1;fontSize=13;size=61;fontFamily=Verdana;fillColor=#e1d5e7;strokeColor=#9673a6;rounded=1;glass=1;shadow=1;fontStyle=1;" vertex="1" parent="1">
          <mxGeometry x="1053.75" y="116" width="100" height="1277" as="geometry" />
        </mxCell>
        <mxCell id="k59G2FWmyJD4u-l8T83N-15" value="" style="html=1;points=[];perimeter=orthogonalPerimeter;outlineConnect=0;targetShapes=umlLifeline;portConstraint=eastwest;newEdgeStyle={&quot;edgeStyle&quot;:&quot;elbowEdgeStyle&quot;,&quot;elbow&quot;:&quot;vertical&quot;,&quot;curved&quot;:0,&quot;rounded&quot;:0};strokeWidth=1;fontSize=13;fontFamily=Verdana;rounded=1;shadow=1;fillColor=#e1d5e7;strokeColor=#9673a6;fontStyle=1;" vertex="1" parent="k59G2FWmyJD4u-l8T83N-14">
          <mxGeometry x="45" y="760" width="10" height="177" as="geometry" />
        </mxCell>
        <mxCell id="k59G2FWmyJD4u-l8T83N-88" value="" style="html=1;points=[];perimeter=orthogonalPerimeter;outlineConnect=0;targetShapes=umlLifeline;portConstraint=eastwest;newEdgeStyle={&quot;edgeStyle&quot;:&quot;elbowEdgeStyle&quot;,&quot;elbow&quot;:&quot;vertical&quot;,&quot;curved&quot;:0,&quot;rounded&quot;:0};strokeWidth=1;fontSize=13;fontFamily=Verdana;rounded=1;shadow=1;fillColor=#e1d5e7;strokeColor=#9673a6;fontStyle=1;" vertex="1" parent="k59G2FWmyJD4u-l8T83N-14">
          <mxGeometry x="45" y="560.5" width="10" height="127" as="geometry" />
        </mxCell>
        <mxCell id="k59G2FWmyJD4u-l8T83N-17" value="Jenkins CI-pipeline" style="shape=umlLifeline;perimeter=lifelinePerimeter;whiteSpace=wrap;html=1;container=0;dropTarget=0;collapsible=0;recursiveResize=0;outlineConnect=0;portConstraint=eastwest;newEdgeStyle={&quot;edgeStyle&quot;:&quot;elbowEdgeStyle&quot;,&quot;elbow&quot;:&quot;vertical&quot;,&quot;curved&quot;:0,&quot;rounded&quot;:0};strokeWidth=1;fontSize=13;size=60;fontFamily=Verdana;fillColor=#dae8fc;strokeColor=#6c8ebf;glass=1;rounded=1;shadow=1;fontStyle=1;" vertex="1" parent="1">
          <mxGeometry x="1341" y="114" width="100" height="1275" as="geometry" />
        </mxCell>
        <mxCell id="k59G2FWmyJD4u-l8T83N-18" value="" style="html=1;points=[];perimeter=orthogonalPerimeter;outlineConnect=0;targetShapes=umlLifeline;portConstraint=eastwest;newEdgeStyle={&quot;edgeStyle&quot;:&quot;elbowEdgeStyle&quot;,&quot;elbow&quot;:&quot;vertical&quot;,&quot;curved&quot;:0,&quot;rounded&quot;:0};strokeWidth=1;fontSize=13;fontFamily=Verdana;fillColor=#dae8fc;strokeColor=#6c8ebf;rounded=1;shadow=1;fontStyle=1;" vertex="1" parent="k59G2FWmyJD4u-l8T83N-17">
          <mxGeometry x="45" y="544" width="10" height="284" as="geometry" />
        </mxCell>
        <mxCell id="k59G2FWmyJD4u-l8T83N-19" value="VF-DE-HelmChart-Repository" style="shape=umlLifeline;perimeter=lifelinePerimeter;whiteSpace=wrap;html=1;container=0;dropTarget=0;collapsible=0;recursiveResize=0;outlineConnect=0;portConstraint=eastwest;newEdgeStyle={&quot;edgeStyle&quot;:&quot;elbowEdgeStyle&quot;,&quot;elbow&quot;:&quot;vertical&quot;,&quot;curved&quot;:0,&quot;rounded&quot;:0};strokeWidth=1;fontSize=13;size=59;fontFamily=Verdana;fillColor=#e1d5e7;strokeColor=#9673a6;rounded=1;glass=1;shadow=1;fontStyle=1;" vertex="1" parent="1">
          <mxGeometry x="1471" y="114" width="100" height="1274" as="geometry" />
        </mxCell>
        <mxCell id="k59G2FWmyJD4u-l8T83N-21" value="VF-DE-K8s-Application-Resources-OPS" style="shape=umlLifeline;perimeter=lifelinePerimeter;whiteSpace=wrap;html=1;container=0;dropTarget=0;collapsible=0;recursiveResize=0;outlineConnect=0;portConstraint=eastwest;newEdgeStyle={&quot;edgeStyle&quot;:&quot;elbowEdgeStyle&quot;,&quot;elbow&quot;:&quot;vertical&quot;,&quot;curved&quot;:0,&quot;rounded&quot;:0};strokeWidth=1;fontSize=13;size=59;fontFamily=Verdana;fillColor=#ffe6cc;strokeColor=#d79b00;rounded=1;glass=1;shadow=1;fontStyle=1;" vertex="1" parent="1">
          <mxGeometry x="1838" y="114" width="100" height="1276" as="geometry" />
        </mxCell>
        <mxCell id="k59G2FWmyJD4u-l8T83N-22" value="" style="html=1;points=[];perimeter=orthogonalPerimeter;outlineConnect=0;targetShapes=umlLifeline;portConstraint=eastwest;newEdgeStyle={&quot;edgeStyle&quot;:&quot;elbowEdgeStyle&quot;,&quot;elbow&quot;:&quot;vertical&quot;,&quot;curved&quot;:0,&quot;rounded&quot;:0};strokeWidth=1;fontSize=13;fontFamily=Verdana;fillColor=#ffe6cc;strokeColor=#d79b00;rounded=1;shadow=1;fontStyle=1;" vertex="1" parent="k59G2FWmyJD4u-l8T83N-21">
          <mxGeometry x="45" y="902" width="10" height="326" as="geometry" />
        </mxCell>
        <mxCell id="k59G2FWmyJD4u-l8T83N-23" value="VF-DE-DXC-CYCC-Static-Configuration" style="shape=umlLifeline;perimeter=lifelinePerimeter;whiteSpace=wrap;html=1;container=0;dropTarget=0;collapsible=0;recursiveResize=0;outlineConnect=0;portConstraint=eastwest;newEdgeStyle={&quot;edgeStyle&quot;:&quot;elbowEdgeStyle&quot;,&quot;elbow&quot;:&quot;vertical&quot;,&quot;curved&quot;:0,&quot;rounded&quot;:0};strokeWidth=1;fontSize=13;size=59;fontFamily=Verdana;fillColor=#ffe6cc;strokeColor=#d79b00;rounded=1;glass=1;shadow=1;fontStyle=1;" vertex="1" parent="1">
          <mxGeometry x="1595" y="114" width="100" height="1276" as="geometry" />
        </mxCell>
        <mxCell id="k59G2FWmyJD4u-l8T83N-24" value="" style="html=1;points=[];perimeter=orthogonalPerimeter;outlineConnect=0;targetShapes=umlLifeline;portConstraint=eastwest;newEdgeStyle={&quot;edgeStyle&quot;:&quot;elbowEdgeStyle&quot;,&quot;elbow&quot;:&quot;vertical&quot;,&quot;curved&quot;:0,&quot;rounded&quot;:0};strokeWidth=1;fontSize=13;fontFamily=Verdana;fillColor=#ffe6cc;strokeColor=#d79b00;rounded=1;shadow=1;fontStyle=1;" vertex="1" parent="k59G2FWmyJD4u-l8T83N-23">
          <mxGeometry x="45" y="903" width="10" height="274" as="geometry" />
        </mxCell>
        <mxCell id="k59G2FWmyJD4u-l8T83N-25" value="VF-DE-K8s-GitOps-Control-Center" style="shape=umlLifeline;perimeter=lifelinePerimeter;whiteSpace=wrap;html=1;container=0;dropTarget=0;collapsible=0;recursiveResize=0;outlineConnect=0;portConstraint=eastwest;newEdgeStyle={&quot;edgeStyle&quot;:&quot;elbowEdgeStyle&quot;,&quot;elbow&quot;:&quot;vertical&quot;,&quot;curved&quot;:0,&quot;rounded&quot;:0};strokeWidth=1;fontSize=13;size=59;fontFamily=Verdana;fillColor=#ffe6cc;strokeColor=#d79b00;rounded=1;glass=1;shadow=1;fontStyle=1;" vertex="1" parent="1">
          <mxGeometry x="1715" y="114" width="100" height="1276" as="geometry" />
        </mxCell>
        <mxCell id="k59G2FWmyJD4u-l8T83N-26" value="" style="html=1;points=[];perimeter=orthogonalPerimeter;outlineConnect=0;targetShapes=umlLifeline;portConstraint=eastwest;newEdgeStyle={&quot;edgeStyle&quot;:&quot;elbowEdgeStyle&quot;,&quot;elbow&quot;:&quot;vertical&quot;,&quot;curved&quot;:0,&quot;rounded&quot;:0};strokeWidth=1;fontSize=13;fontFamily=Verdana;fillColor=#ffe6cc;strokeColor=#d79b00;rounded=1;shadow=1;fontStyle=1;" vertex="1" parent="k59G2FWmyJD4u-l8T83N-25">
          <mxGeometry x="45" y="1004" width="10" height="113" as="geometry" />
        </mxCell>
        <mxCell id="k59G2FWmyJD4u-l8T83N-27" value="ArgoCD managed by ArgoApps" style="shape=umlLifeline;perimeter=lifelinePerimeter;whiteSpace=wrap;html=1;container=0;dropTarget=0;collapsible=0;recursiveResize=0;outlineConnect=0;portConstraint=eastwest;newEdgeStyle={&quot;edgeStyle&quot;:&quot;elbowEdgeStyle&quot;,&quot;elbow&quot;:&quot;vertical&quot;,&quot;curved&quot;:0,&quot;rounded&quot;:0};strokeWidth=1;fontSize=13;size=59;fontFamily=Verdana;fillColor=#e1d5e7;strokeColor=#9673a6;rounded=1;glass=1;shadow=1;fontStyle=1;" vertex="1" parent="1">
          <mxGeometry x="1967" y="114" width="100" height="1276" as="geometry" />
        </mxCell>
        <mxCell id="k59G2FWmyJD4u-l8T83N-28" value="" style="html=1;points=[];perimeter=orthogonalPerimeter;outlineConnect=0;targetShapes=umlLifeline;portConstraint=eastwest;newEdgeStyle={&quot;edgeStyle&quot;:&quot;elbowEdgeStyle&quot;,&quot;elbow&quot;:&quot;vertical&quot;,&quot;curved&quot;:0,&quot;rounded&quot;:0};strokeWidth=1;fontSize=13;fontFamily=Verdana;fillColor=#e1d5e7;strokeColor=#9673a6;rounded=1;shadow=1;fontStyle=1;" vertex="1" parent="k59G2FWmyJD4u-l8T83N-27">
          <mxGeometry x="45" y="124" width="10" height="1104" as="geometry" />
        </mxCell>
        <mxCell id="k59G2FWmyJD4u-l8T83N-29" value="EKS" style="shape=umlLifeline;perimeter=lifelinePerimeter;whiteSpace=wrap;html=1;container=0;dropTarget=0;collapsible=0;recursiveResize=0;outlineConnect=0;portConstraint=eastwest;newEdgeStyle={&quot;edgeStyle&quot;:&quot;elbowEdgeStyle&quot;,&quot;elbow&quot;:&quot;vertical&quot;,&quot;curved&quot;:0,&quot;rounded&quot;:0};strokeWidth=1;fontSize=13;size=59;fontFamily=Verdana;fillColor=#f8cecc;strokeColor=#b85450;rounded=1;glass=1;shadow=1;fontStyle=1;" vertex="1" parent="1">
          <mxGeometry x="2109" y="115" width="100" height="1271" as="geometry" />
        </mxCell>
        <mxCell id="k59G2FWmyJD4u-l8T83N-30" value="" style="html=1;points=[];perimeter=orthogonalPerimeter;outlineConnect=0;targetShapes=umlLifeline;portConstraint=eastwest;newEdgeStyle={&quot;edgeStyle&quot;:&quot;elbowEdgeStyle&quot;,&quot;elbow&quot;:&quot;vertical&quot;,&quot;curved&quot;:0,&quot;rounded&quot;:0};strokeWidth=1;fontSize=13;fontFamily=Verdana;fillColor=#f8cecc;strokeColor=#b85450;rounded=1;shadow=1;fontStyle=1;" vertex="1" parent="k59G2FWmyJD4u-l8T83N-29">
          <mxGeometry x="45" y="866" width="10" height="261" as="geometry" />
        </mxCell>
        <mxCell id="k59G2FWmyJD4u-l8T83N-34" value="" style="shape=actor;whiteSpace=wrap;html=1;shadow=1;fillColor=#d80073;strokeColor=#A50040;fontColor=#ffffff;fontStyle=1" vertex="1" parent="1">
          <mxGeometry x="80" y="114" width="40" height="60" as="geometry" />
        </mxCell>
        <mxCell id="k59G2FWmyJD4u-l8T83N-35" value="Vendor - DXC" style="text;strokeColor=none;align=center;fillColor=none;html=1;verticalAlign=middle;whiteSpace=wrap;rounded=0;fontStyle=1;" vertex="1" parent="1">
          <mxGeometry x="70" y="74" width="60" height="30" as="geometry" />
        </mxCell>
        <mxCell id="k59G2FWmyJD4u-l8T83N-38" value="" style="endArrow=none;dashed=1;html=1;rounded=0;fontStyle=1;" edge="1" parent="1">
          <mxGeometry width="50" height="50" relative="1" as="geometry">
            <mxPoint x="100" y="244" as="sourcePoint" />
            <mxPoint x="100" y="177" as="targetPoint" />
          </mxGeometry>
        </mxCell>
        <mxCell id="k59G2FWmyJD4u-l8T83N-41" value="" style="endArrow=none;dashed=1;html=1;rounded=0;fontStyle=1;" edge="1" parent="1" source="k59G2FWmyJD4u-l8T83N-51">
          <mxGeometry width="50" height="50" relative="1" as="geometry">
            <mxPoint x="104" y="851" as="sourcePoint" />
            <mxPoint x="100.16123119598387" y="290.99944681464694" as="targetPoint" />
          </mxGeometry>
        </mxCell>
        <mxCell id="k59G2FWmyJD4u-l8T83N-42" value="" style="endArrow=classic;html=1;rounded=0;fontStyle=1;" edge="1" parent="1" target="aM9ryv3xv72pqoxQDRHE-1">
          <mxGeometry width="50" height="50" relative="1" as="geometry">
            <mxPoint x="123.5" y="267" as="sourcePoint" />
            <mxPoint x="173.5" y="217" as="targetPoint" />
          </mxGeometry>
        </mxCell>
        <mxCell id="k59G2FWmyJD4u-l8T83N-43" value="Image Delivery" style="shape=process;whiteSpace=wrap;html=1;backgroundOutline=1;rounded=1;shadow=1;fillColor=#dae8fc;strokeColor=#6c8ebf;glass=1;fontStyle=1;" vertex="1" parent="1">
          <mxGeometry x="40" y="238" width="120" height="60" as="geometry" />
        </mxCell>
        <mxCell id="k59G2FWmyJD4u-l8T83N-45" value="" style="endArrow=classic;html=1;rounded=0;fontStyle=1;" edge="1" parent="1" target="aM9ryv3xv72pqoxQDRHE-5">
          <mxGeometry width="50" height="50" relative="1" as="geometry">
            <mxPoint x="260" y="281" as="sourcePoint" />
            <mxPoint x="310" y="231" as="targetPoint" />
          </mxGeometry>
        </mxCell>
        <mxCell id="k59G2FWmyJD4u-l8T83N-46" value="" style="endArrow=classic;html=1;rounded=0;fontStyle=1;" edge="1" parent="1" target="k59G2FWmyJD4u-l8T83N-12">
          <mxGeometry width="50" height="50" relative="1" as="geometry">
            <mxPoint x="260" y="335" as="sourcePoint" />
            <mxPoint x="310" y="285" as="targetPoint" />
          </mxGeometry>
        </mxCell>
        <mxCell id="k59G2FWmyJD4u-l8T83N-47" value="" style="html=1;labelBackgroundColor=#ffffff;startArrow=none;startFill=0;startSize=6;endArrow=classic;endFill=1;endSize=6;jettySize=auto;orthogonalLoop=1;strokeWidth=1;dashed=1;fontSize=14;rounded=0;fontStyle=1;" edge="1" parent="1" target="k59G2FWmyJD4u-l8T83N-1">
          <mxGeometry width="60" height="60" relative="1" as="geometry">
            <mxPoint x="973" y="380" as="sourcePoint" />
            <mxPoint x="1033" y="320" as="targetPoint" />
          </mxGeometry>
        </mxCell>
        <mxCell id="k59G2FWmyJD4u-l8T83N-48" value="" style="html=1;labelBackgroundColor=#ffffff;startArrow=none;startFill=0;startSize=6;endArrow=classic;endFill=1;endSize=6;jettySize=auto;orthogonalLoop=1;strokeWidth=1;dashed=1;fontSize=14;rounded=0;fontStyle=1;" edge="1" parent="1" target="aM9ryv3xv72pqoxQDRHE-5">
          <mxGeometry width="60" height="60" relative="1" as="geometry">
            <mxPoint x="579" y="446" as="sourcePoint" />
            <mxPoint x="639" y="386" as="targetPoint" />
          </mxGeometry>
        </mxCell>
        <mxCell id="k59G2FWmyJD4u-l8T83N-49" value="" style="endArrow=classic;html=1;rounded=0;fontStyle=1;" edge="1" parent="1">
          <mxGeometry width="50" height="50" relative="1" as="geometry">
            <mxPoint x="455" y="496" as="sourcePoint" />
            <mxPoint x="707.5" y="496" as="targetPoint" />
          </mxGeometry>
        </mxCell>
        <mxCell id="k59G2FWmyJD4u-l8T83N-50" value="" style="shape=image;html=1;verticalAlign=top;verticalLabelPosition=bottom;labelBackgroundColor=#ffffff;imageAspect=0;aspect=fixed;image=https://cdn3.iconfinder.com/data/icons/arrows-set-12/512/refresh-128.png;fontStyle=1;" vertex="1" parent="1">
          <mxGeometry x="729" y="454" width="92" height="92" as="geometry" />
        </mxCell>
        <mxCell id="k59G2FWmyJD4u-l8T83N-52" value="" style="endArrow=none;dashed=1;html=1;rounded=0;fontStyle=1;" edge="1" parent="1" source="k59G2FWmyJD4u-l8T83N-57" target="k59G2FWmyJD4u-l8T83N-51">
          <mxGeometry width="50" height="50" relative="1" as="geometry">
            <mxPoint x="104" y="851" as="sourcePoint" />
            <mxPoint x="100.16123119598387" y="290.99944681464694" as="targetPoint" />
          </mxGeometry>
        </mxCell>
        <mxCell id="k59G2FWmyJD4u-l8T83N-51" value="Delivery Kit Delivery" style="shape=process;whiteSpace=wrap;html=1;backgroundOutline=1;rounded=1;shadow=1;fillColor=#dae8fc;strokeColor=#6c8ebf;glass=1;fontStyle=1;" vertex="1" parent="1">
          <mxGeometry x="40" y="561" width="120" height="60" as="geometry" />
        </mxCell>
        <mxCell id="k59G2FWmyJD4u-l8T83N-53" value="&lt;b&gt;Trivy&lt;/b&gt;" style="text;html=1;align=center;verticalAlign=middle;whiteSpace=wrap;rounded=0;" vertex="1" parent="1">
          <mxGeometry x="745" y="485" width="60" height="30" as="geometry" />
        </mxCell>
        <mxCell id="k59G2FWmyJD4u-l8T83N-54" value="" style="endArrow=classic;html=1;rounded=0;" edge="1" parent="1" source="k59G2FWmyJD4u-l8T83N-27">
          <mxGeometry width="50" height="50" relative="1" as="geometry">
            <mxPoint x="1102.5" y="499.5" as="sourcePoint" />
            <mxPoint x="840" y="499.5" as="targetPoint" />
          </mxGeometry>
        </mxCell>
        <mxCell id="k59G2FWmyJD4u-l8T83N-56" value="" style="endArrow=classic;html=1;rounded=0;fontStyle=1;" edge="1" parent="1">
          <mxGeometry width="50" height="50" relative="1" as="geometry">
            <mxPoint x="260" y="594" as="sourcePoint" />
            <mxPoint x="452" y="594" as="targetPoint" />
          </mxGeometry>
        </mxCell>
        <mxCell id="k59G2FWmyJD4u-l8T83N-58" value="" style="endArrow=none;dashed=1;html=1;rounded=0;fontStyle=1;" edge="1" parent="1" target="k59G2FWmyJD4u-l8T83N-57">
          <mxGeometry width="50" height="50" relative="1" as="geometry">
            <mxPoint x="104" y="1398" as="sourcePoint" />
            <mxPoint x="100" y="621" as="targetPoint" />
          </mxGeometry>
        </mxCell>
        <mxCell id="k59G2FWmyJD4u-l8T83N-57" value="Chart Delivery" style="shape=process;whiteSpace=wrap;html=1;backgroundOutline=1;rounded=1;shadow=1;fillColor=#dae8fc;strokeColor=#6c8ebf;glass=1;fontStyle=1;" vertex="1" parent="1">
          <mxGeometry x="42" y="669" width="120" height="60" as="geometry" />
        </mxCell>
        <mxCell id="k59G2FWmyJD4u-l8T83N-60" value="" style="endArrow=classic;html=1;rounded=0;fontStyle=1;" edge="1" parent="1">
          <mxGeometry width="50" height="50" relative="1" as="geometry">
            <mxPoint x="258" y="698.5" as="sourcePoint" />
            <mxPoint x="1071" y="699" as="targetPoint" />
          </mxGeometry>
        </mxCell>
        <mxCell id="k59G2FWmyJD4u-l8T83N-61" value="" style="verticalLabelPosition=bottom;html=1;verticalAlign=top;align=center;shape=mxgraph.azure.github_code;pointerEvents=1;" vertex="1" parent="1">
          <mxGeometry x="1074" y="658" width="62" height="61" as="geometry" />
        </mxCell>
        <mxCell id="k59G2FWmyJD4u-l8T83N-62" value="&lt;b&gt;&lt;u&gt;DEV&lt;/u&gt;&lt;/b&gt;" style="text;html=1;align=center;verticalAlign=middle;whiteSpace=wrap;rounded=0;" vertex="1" parent="1">
          <mxGeometry x="1075" y="678" width="60" height="30" as="geometry" />
        </mxCell>
        <mxCell id="k59G2FWmyJD4u-l8T83N-65" value="" style="verticalLabelPosition=bottom;html=1;verticalAlign=top;align=center;shape=mxgraph.azure.github_code;pointerEvents=1;" vertex="1" parent="1">
          <mxGeometry x="1073" y="754" width="61.5" height="62" as="geometry" />
        </mxCell>
        <mxCell id="k59G2FWmyJD4u-l8T83N-66" value="&lt;b&gt;&lt;u&gt;TEST&lt;/u&gt;&lt;/b&gt;" style="text;html=1;align=center;verticalAlign=middle;whiteSpace=wrap;rounded=0;" vertex="1" parent="1">
          <mxGeometry x="1076" y="773" width="55.5" height="31" as="geometry" />
        </mxCell>
        <mxCell id="k59G2FWmyJD4u-l8T83N-67" value="&lt;b&gt;&lt;font face=&quot;Verdana&quot;&gt;Deployment Team&lt;/font&gt;&lt;/b&gt;" style="rounded=1;whiteSpace=wrap;html=1;fillColor=#0050ef;fontColor=#ffffff;strokeColor=#001DBC;glass=1;shadow=1;" vertex="1" parent="1">
          <mxGeometry x="1191" y="114" width="120" height="60" as="geometry" />
        </mxCell>
        <mxCell id="k59G2FWmyJD4u-l8T83N-69" value="" style="endArrow=none;dashed=1;html=1;rounded=0;" edge="1" parent="1" source="k59G2FWmyJD4u-l8T83N-70">
          <mxGeometry width="50" height="50" relative="1" as="geometry">
            <mxPoint x="1257" y="1096" as="sourcePoint" />
            <mxPoint x="1253" y="174" as="targetPoint" />
          </mxGeometry>
        </mxCell>
        <mxCell id="k59G2FWmyJD4u-l8T83N-71" value="" style="endArrow=none;dashed=1;html=1;rounded=0;" edge="1" parent="1" source="k59G2FWmyJD4u-l8T83N-82" target="k59G2FWmyJD4u-l8T83N-70">
          <mxGeometry width="50" height="50" relative="1" as="geometry">
            <mxPoint x="1257" y="1389" as="sourcePoint" />
            <mxPoint x="1253" y="174" as="targetPoint" />
          </mxGeometry>
        </mxCell>
        <mxCell id="k59G2FWmyJD4u-l8T83N-70" value="" style="html=1;points=[];perimeter=orthogonalPerimeter;outlineConnect=0;targetShapes=umlLifeline;portConstraint=eastwest;newEdgeStyle={&quot;edgeStyle&quot;:&quot;elbowEdgeStyle&quot;,&quot;elbow&quot;:&quot;vertical&quot;,&quot;curved&quot;:0,&quot;rounded&quot;:0};strokeWidth=1;fontSize=13;fontFamily=Verdana;fillColor=#0050ef;strokeColor=#001DBC;rounded=1;shadow=1;fontStyle=1;fontColor=#ffffff;glass=0;" vertex="1" parent="1">
          <mxGeometry x="1250" y="658" width="10" height="170" as="geometry" />
        </mxCell>
        <mxCell id="k59G2FWmyJD4u-l8T83N-72" value="" style="endArrow=none;html=1;rounded=0;" edge="1" parent="1">
          <mxGeometry width="50" height="50" relative="1" as="geometry">
            <mxPoint x="1126.5" y="701" as="sourcePoint" />
            <mxPoint x="1248" y="735" as="targetPoint" />
          </mxGeometry>
        </mxCell>
        <mxCell id="k59G2FWmyJD4u-l8T83N-73" value="" style="endArrow=classic;html=1;rounded=0;entryX=1;entryY=0.75;entryDx=0;entryDy=0;" edge="1" parent="1" target="k59G2FWmyJD4u-l8T83N-66">
          <mxGeometry width="50" height="50" relative="1" as="geometry">
            <mxPoint x="1249" y="735" as="sourcePoint" />
            <mxPoint x="1201" y="770" as="targetPoint" />
          </mxGeometry>
        </mxCell>
        <mxCell id="k59G2FWmyJD4u-l8T83N-74" value="" style="endArrow=classic;html=1;rounded=0;exitX=1;exitY=0.75;exitDx=0;exitDy=0;" edge="1" parent="1" source="k59G2FWmyJD4u-l8T83N-66" target="k59G2FWmyJD4u-l8T83N-17">
          <mxGeometry width="50" height="50" relative="1" as="geometry">
            <mxPoint x="1265" y="778" as="sourcePoint" />
            <mxPoint x="1315" y="728" as="targetPoint" />
          </mxGeometry>
        </mxCell>
        <mxCell id="k59G2FWmyJD4u-l8T83N-75" value="" style="endArrow=classic;html=1;rounded=0;" edge="1" parent="1">
          <mxGeometry width="50" height="50" relative="1" as="geometry">
            <mxPoint x="1391.25" y="892" as="sourcePoint" />
            <mxPoint x="1110.75" y="892" as="targetPoint" />
          </mxGeometry>
        </mxCell>
        <mxCell id="k59G2FWmyJD4u-l8T83N-76" value="" style="endArrow=classic;html=1;rounded=0;" edge="1" parent="1">
          <mxGeometry width="50" height="50" relative="1" as="geometry">
            <mxPoint x="1113" y="976" as="sourcePoint" />
            <mxPoint x="1465" y="976" as="targetPoint" />
          </mxGeometry>
        </mxCell>
        <mxCell id="k59G2FWmyJD4u-l8T83N-77" value="" style="verticalLabelPosition=bottom;html=1;verticalAlign=top;align=center;shape=mxgraph.azure.github_code;pointerEvents=1;" vertex="1" parent="1">
          <mxGeometry x="1482.75" y="931" width="76.5" height="80" as="geometry" />
        </mxCell>
        <mxCell id="k59G2FWmyJD4u-l8T83N-79" value="&lt;b&gt;MASTER&lt;/b&gt;" style="text;html=1;align=center;verticalAlign=middle;whiteSpace=wrap;rounded=0;" vertex="1" parent="1">
          <mxGeometry x="1491" y="960" width="60" height="30" as="geometry" />
        </mxCell>
        <mxCell id="k59G2FWmyJD4u-l8T83N-81" value="" style="endArrow=classic;html=1;rounded=0;" edge="1" parent="1" source="k59G2FWmyJD4u-l8T83N-27">
          <mxGeometry width="50" height="50" relative="1" as="geometry">
            <mxPoint x="1828" y="979" as="sourcePoint" />
            <mxPoint x="1573" y="975" as="targetPoint" />
          </mxGeometry>
        </mxCell>
        <mxCell id="k59G2FWmyJD4u-l8T83N-83" value="" style="endArrow=none;dashed=1;html=1;rounded=0;" edge="1" parent="1" target="k59G2FWmyJD4u-l8T83N-82">
          <mxGeometry width="50" height="50" relative="1" as="geometry">
            <mxPoint x="1257" y="1389" as="sourcePoint" />
            <mxPoint x="1257" y="828" as="targetPoint" />
          </mxGeometry>
        </mxCell>
        <mxCell id="k59G2FWmyJD4u-l8T83N-82" value="" style="html=1;points=[];perimeter=orthogonalPerimeter;outlineConnect=0;targetShapes=umlLifeline;portConstraint=eastwest;newEdgeStyle={&quot;edgeStyle&quot;:&quot;elbowEdgeStyle&quot;,&quot;elbow&quot;:&quot;vertical&quot;,&quot;curved&quot;:0,&quot;rounded&quot;:0};strokeWidth=1;fontSize=13;fontFamily=Verdana;fillColor=#0050ef;strokeColor=#001DBC;rounded=1;shadow=1;fontStyle=1;fontColor=#ffffff;glass=0;" vertex="1" parent="1">
          <mxGeometry x="1252" y="1056" width="10" height="329" as="geometry" />
        </mxCell>
        <mxCell id="k59G2FWmyJD4u-l8T83N-84" value="" style="endArrow=classic;html=1;rounded=0;" edge="1" parent="1" target="k59G2FWmyJD4u-l8T83N-24">
          <mxGeometry width="50" height="50" relative="1" as="geometry">
            <mxPoint x="1264" y="1100" as="sourcePoint" />
            <mxPoint x="1314" y="1050" as="targetPoint" />
          </mxGeometry>
        </mxCell>
        <mxCell id="k59G2FWmyJD4u-l8T83N-85" value="" style="verticalLabelPosition=bottom;html=1;verticalAlign=top;align=center;shape=mxgraph.azure.github_code;pointerEvents=1;" vertex="1" parent="1">
          <mxGeometry x="1614" y="1031" width="62" height="61" as="geometry" />
        </mxCell>
        <mxCell id="k59G2FWmyJD4u-l8T83N-86" value="" style="verticalLabelPosition=bottom;html=1;verticalAlign=top;align=center;shape=mxgraph.azure.github_code;pointerEvents=1;" vertex="1" parent="1">
          <mxGeometry x="1614" y="1119" width="62" height="61" as="geometry" />
        </mxCell>
        <mxCell id="k59G2FWmyJD4u-l8T83N-87" value="" style="verticalLabelPosition=bottom;html=1;verticalAlign=top;align=center;shape=mxgraph.azure.github_code;pointerEvents=1;" vertex="1" parent="1">
          <mxGeometry x="1614" y="1202" width="62" height="61" as="geometry" />
        </mxCell>
        <mxCell id="k59G2FWmyJD4u-l8T83N-89" value="&lt;b&gt;TEST&lt;/b&gt;" style="text;html=1;align=center;verticalAlign=middle;whiteSpace=wrap;rounded=0;" vertex="1" parent="1">
          <mxGeometry x="1616" y="1050" width="60" height="30" as="geometry" />
        </mxCell>
        <mxCell id="k59G2FWmyJD4u-l8T83N-90" value="&lt;b&gt;PREPROD&lt;/b&gt;" style="text;html=1;align=center;verticalAlign=middle;whiteSpace=wrap;rounded=0;" vertex="1" parent="1">
          <mxGeometry x="1615" y="1137" width="60" height="30" as="geometry" />
        </mxCell>
        <mxCell id="k59G2FWmyJD4u-l8T83N-91" value="&lt;b&gt;PROD&lt;/b&gt;" style="text;html=1;align=center;verticalAlign=middle;whiteSpace=wrap;rounded=0;" vertex="1" parent="1">
          <mxGeometry x="1616" y="1220" width="60" height="30" as="geometry" />
        </mxCell>
        <mxCell id="k59G2FWmyJD4u-l8T83N-92" value="" style="endArrow=classic;html=1;rounded=0;" edge="1" parent="1">
          <mxGeometry width="50" height="50" relative="1" as="geometry">
            <mxPoint x="1760.5" y="1149" as="sourcePoint" />
            <mxPoint x="1683" y="1149" as="targetPoint" />
          </mxGeometry>
        </mxCell>
        <mxCell id="k59G2FWmyJD4u-l8T83N-93" value="" style="endArrow=classic;html=1;rounded=0;" edge="1" parent="1" target="k59G2FWmyJD4u-l8T83N-21">
          <mxGeometry width="50" height="50" relative="1" as="geometry">
            <mxPoint x="1770" y="1211" as="sourcePoint" />
            <mxPoint x="1820" y="1161" as="targetPoint" />
          </mxGeometry>
        </mxCell>
        <mxCell id="k59G2FWmyJD4u-l8T83N-95" value="" style="endArrow=classic;html=1;rounded=0;fontStyle=1;" edge="1" parent="1">
          <mxGeometry width="50" height="50" relative="1" as="geometry">
            <mxPoint x="160" y="595" as="sourcePoint" />
            <mxPoint x="247.5" y="595" as="targetPoint" />
          </mxGeometry>
        </mxCell>
        <mxCell id="k59G2FWmyJD4u-l8T83N-96" value="" style="endArrow=classic;html=1;rounded=0;fontStyle=1;" edge="1" parent="1">
          <mxGeometry width="50" height="50" relative="1" as="geometry">
            <mxPoint x="162" y="698.5" as="sourcePoint" />
            <mxPoint x="246" y="699" as="targetPoint" />
          </mxGeometry>
        </mxCell>
        <mxCell id="k59G2FWmyJD4u-l8T83N-97" value="" style="endArrow=classic;html=1;rounded=0;" edge="1" parent="1" target="k59G2FWmyJD4u-l8T83N-21">
          <mxGeometry width="50" height="50" relative="1" as="geometry">
            <mxPoint x="1262" y="1325" as="sourcePoint" />
            <mxPoint x="1312" y="1275" as="targetPoint" />
          </mxGeometry>
        </mxCell>
        <mxCell id="k59G2FWmyJD4u-l8T83N-98" value="" style="endArrow=classic;html=1;rounded=0;" edge="1" parent="1">
          <mxGeometry width="50" height="50" relative="1" as="geometry">
            <mxPoint x="2013.5" y="1326" as="sourcePoint" />
            <mxPoint x="1894" y="1326" as="targetPoint" />
          </mxGeometry>
        </mxCell>
        <mxCell id="k59G2FWmyJD4u-l8T83N-100" value="" style="endArrow=classic;html=1;rounded=0;" edge="1" parent="1">
          <mxGeometry width="50" height="50" relative="1" as="geometry">
            <mxPoint x="2022" y="1119" as="sourcePoint" />
            <mxPoint x="2156" y="1119" as="targetPoint" />
          </mxGeometry>
        </mxCell>
        <mxCell id="k59G2FWmyJD4u-l8T83N-102" value="" style="rounded=1;whiteSpace=wrap;html=1;fillColor=none;glass=0;shadow=1;" vertex="1" parent="1">
          <mxGeometry x="648" y="74" width="262" height="1342" as="geometry" />
        </mxCell>
        <mxCell id="k59G2FWmyJD4u-l8T83N-103" value="&lt;font style=&quot;font-size: 13px;&quot;&gt;PUSH DOCKER IMAGE&lt;/font&gt;" style="text;html=1;align=center;verticalAlign=middle;resizable=0;points=[];autosize=1;strokeColor=none;fillColor=none;" vertex="1" parent="1">
          <mxGeometry x="274" y="254" width="158" height="28" as="geometry" />
        </mxCell>
        <mxCell id="k59G2FWmyJD4u-l8T83N-104" value="&lt;font style=&quot;font-size: 13px;&quot;&gt;MODIFY FILE WITH DOCKER IMAGE PATH FROM NEXUS&lt;/font&gt;" style="text;html=1;align=center;verticalAlign=middle;resizable=0;points=[];autosize=1;strokeColor=none;fillColor=none;" vertex="1" parent="1">
          <mxGeometry x="274" y="306" width="366" height="28" as="geometry" />
        </mxCell>
        <mxCell id="k59G2FWmyJD4u-l8T83N-106" value="&lt;font style=&quot;font-size: 13px;&quot;&gt;TRIGGER GOCD PIPELINE&lt;/font&gt;" style="text;html=1;align=center;verticalAlign=middle;resizable=0;points=[];autosize=1;strokeColor=none;fillColor=none;" vertex="1" parent="1">
          <mxGeometry x="688" y="352" width="182" height="28" as="geometry" />
        </mxCell>
        <mxCell id="k59G2FWmyJD4u-l8T83N-107" value="&lt;font style=&quot;font-size: 13px;&quot;&gt;FETCH DOCKER IMAGE&lt;/font&gt;" style="text;html=1;align=center;verticalAlign=middle;resizable=0;points=[];autosize=1;strokeColor=none;fillColor=none;" vertex="1" parent="1">
          <mxGeometry x="455" y="418" width="165" height="28" as="geometry" />
        </mxCell>
        <mxCell id="k59G2FWmyJD4u-l8T83N-108" value="&lt;font style=&quot;font-size: 13px;&quot;&gt;PUSH DOCU DELIVERY&lt;/font&gt;" style="text;html=1;align=center;verticalAlign=middle;resizable=0;points=[];autosize=1;strokeColor=none;fillColor=none;" vertex="1" parent="1">
          <mxGeometry x="277" y="566" width="163" height="28" as="geometry" />
        </mxCell>
        <mxCell id="k59G2FWmyJD4u-l8T83N-109" value="&lt;font style=&quot;font-size: 13px;&quot;&gt;PUSH CHART DELIVERY, CHANGES ARE MADE ON DEV BRANCH AND A PULL REQUEST IS CREATED&lt;/font&gt;" style="text;html=1;align=center;verticalAlign=middle;resizable=0;points=[];autosize=1;strokeColor=none;fillColor=none;" vertex="1" parent="1">
          <mxGeometry x="277" y="669" width="645" height="28" as="geometry" />
        </mxCell>
        <mxCell id="k59G2FWmyJD4u-l8T83N-110" value="&lt;font style=&quot;font-size: 13px;&quot;&gt;MERGE PR&lt;/font&gt;" style="text;html=1;align=center;verticalAlign=middle;resizable=0;points=[];autosize=1;strokeColor=none;fillColor=none;rotation=15;" vertex="1" parent="1">
          <mxGeometry x="1151" y="691" width="87" height="28" as="geometry" />
        </mxCell>
        <mxCell id="k59G2FWmyJD4u-l8T83N-111" value="&lt;span style=&quot;font-size: 13px;&quot;&gt;CI PIPELINE STARTS THE COPY PROCESS&lt;/span&gt;" style="text;html=1;align=center;verticalAlign=middle;resizable=0;points=[];autosize=1;strokeColor=none;fillColor=none;" vertex="1" parent="1">
          <mxGeometry x="1109.5" y="869" width="283" height="28" as="geometry" />
        </mxCell>
        <mxCell id="k59G2FWmyJD4u-l8T83N-112" value="&lt;span style=&quot;font-size: 13px;&quot;&gt;GITHUB WEBHOOK TRIGGERS CI PIPELINE&lt;/span&gt;" style="text;html=1;align=center;verticalAlign=middle;resizable=0;points=[];autosize=1;strokeColor=none;fillColor=none;" vertex="1" parent="1">
          <mxGeometry x="1164" y="771" width="288" height="28" as="geometry" />
        </mxCell>
        <mxCell id="k59G2FWmyJD4u-l8T83N-113" value="&lt;span style=&quot;font-size: 13px;&quot;&gt;CI PIPELINE COPIES THE HELM CHART TO MASTER REPO&lt;/span&gt;" style="text;html=1;align=center;verticalAlign=middle;resizable=0;points=[];autosize=1;strokeColor=none;fillColor=none;" vertex="1" parent="1">
          <mxGeometry x="1106" y="950" width="381" height="28" as="geometry" />
        </mxCell>
        <mxCell id="k59G2FWmyJD4u-l8T83N-114" value="&lt;span style=&quot;font-size: 13px;&quot;&gt;FETCH HELM CHART&lt;/span&gt;" style="text;html=1;align=center;verticalAlign=middle;resizable=0;points=[];autosize=1;strokeColor=none;fillColor=none;" vertex="1" parent="1">
          <mxGeometry x="1675" y="950" width="149" height="28" as="geometry" />
        </mxCell>
        <mxCell id="k59G2FWmyJD4u-l8T83N-115" value="&lt;span style=&quot;font-size: 13px;&quot;&gt;FETCH DOCKER IMAGE&lt;/span&gt;" style="text;html=1;align=center;verticalAlign=middle;resizable=0;points=[];autosize=1;strokeColor=none;fillColor=none;" vertex="1" parent="1">
          <mxGeometry x="1459" y="472" width="165" height="28" as="geometry" />
        </mxCell>
        <mxCell id="k59G2FWmyJD4u-l8T83N-116" value="&lt;span style=&quot;font-size: 13px;&quot;&gt;MAKE STATIC CONFIG CHANGES AS PER REQUIREMENT&lt;/span&gt;" style="text;html=1;align=center;verticalAlign=middle;resizable=0;points=[];autosize=1;strokeColor=none;fillColor=none;" vertex="1" parent="1">
          <mxGeometry x="1256" y="1074" width="374" height="28" as="geometry" />
        </mxCell>
        <mxCell id="k59G2FWmyJD4u-l8T83N-118" value="" style="ellipse;shape=cloud;whiteSpace=wrap;html=1;" vertex="1" parent="1">
          <mxGeometry x="1718" y="1056" width="139" height="94" as="geometry" />
        </mxCell>
        <mxCell id="k59G2FWmyJD4u-l8T83N-119" value="STATIC_DATA.SH FROM CLOUD 9" style="text;html=1;align=center;verticalAlign=middle;whiteSpace=wrap;rounded=0;" vertex="1" parent="1">
          <mxGeometry x="1760" y="1092" width="60" height="30" as="geometry" />
        </mxCell>
        <mxCell id="k59G2FWmyJD4u-l8T83N-120" value="&lt;span style=&quot;font-size: 13px;&quot;&gt;COMMIT SHA1 GETS MODIFIED IN VALUES.YAML&lt;/span&gt;" style="text;html=1;align=center;verticalAlign=middle;resizable=0;points=[];autosize=1;strokeColor=none;fillColor=none;rotation=90;" vertex="1" parent="1">
          <mxGeometry x="1750" y="1152" width="320" height="28" as="geometry" />
        </mxCell>
        <mxCell id="k59G2FWmyJD4u-l8T83N-121" value="&lt;span style=&quot;font-size: 13px;&quot;&gt;DEPLOY IMAGE WITH CHART AND CONFIG&lt;/span&gt;" style="text;html=1;align=center;verticalAlign=middle;resizable=0;points=[];autosize=1;strokeColor=none;fillColor=none;rotation=90;" vertex="1" parent="1">
          <mxGeometry x="2038" y="1102" width="283" height="28" as="geometry" />
        </mxCell>
      </root>
    </mxGraphModel>
  </diagram>
</mxfile>
